<svg id="Layer_1" data-name="Layer 1" xmlns="http://www.w3.org/2000/svg" viewBox="0 0 211.18 153.22"><defs><style>.cls-1{fill:#1d1d1b}</style></defs><path class="cls-1" d="M29 121.6h7.62v4.2h.12c2.52-3.54 5.94-4.92 10.14-4.92 7.32 0 10.5 5.16 10.5 12.12v19.5h-8V136c0-3.78-.06-8.88-5.22-8.88-5.82 0-7.08 6.3-7.08 10.26v15.12H29zM65.68 107.5h8v18.3h.12a11.5 11.5 0 019.72-4.92c7.32 0 10.5 5.16 10.5 12.12v19.5H86V136c0-3.78-.06-8.88-5.22-8.88-5.82 0-7.08 6.3-7.08 10.26v15.12h-8zM120.7 128.08a19.72 19.72 0 00-7.2-1.32c-2.16 0-4.74.78-4.74 3.42 0 4.92 14 1.8 14 13 0 7.2-6.42 10.08-13 10.08a36 36 0 01-9.12-1.32l.48-6.6a17.66 17.66 0 007.92 2c2 0 5.28-.78 5.28-3.78 0-6.06-14-1.92-14-13.08 0-6.66 5.82-9.6 12.12-9.6a37 37 0 018.76 1.14zM129 144.1h8.4v8.4H129zM174 152.5h-7.62v-4.2h-.12a12.89 12.89 0 01-10.14 4.92c-7.32 0-10.5-5.16-10.5-12.12v-19.5h8v16.5c0 3.78.06 8.88 5.22 8.88 5.82 0 7.08-6.3 7.08-10.26V121.6h8zM182.5 107.5h8V134h.12l9.6-12.36h9.48l-11.52 13.8 13 17.1H201l-10.32-15h-.12v15h-8z"/><path fill="#fff" d="M2.45 2.9h203.28v78.69H2.45z"/><path d="M203.27 10.07l-4.44 13.63a34.85 34.85 0 00-15.17-3.13c-7.29 0-13.21 1.07-13.21 6.57 0 9.7 26.71 6.08 26.71 26.87 0 18.92-17.65 23.83-33.61 23.83a77.43 77.43 0 01-21.29-3.54l4.34-13.93c3.64 2.36 10.94 3.93 17 3.93 5.72 0 14.68-1.08 14.68-8.14 0-11-26.71-6.87-26.71-26.17 0-17.66 15.58-23 30.66-23 8.48 0 16.46.89 21.09 3m-52.98-1.78l-14.29 68.44h-18.42l6.11-29.31H102l-6.17 29.31H77.41l14.3-68.44h18.42l-5.41 26.18h21.78l5.42-26.18zm-65.43 0L70.33 76.65H47.45L33.07 29.29h-.2l-9.56 47.36H6L20.65 8.21h23l14.1 47.46h.19l9.62-47.46zM211.18 0H0v85h211.18z" fill="#005eb8"/></svg>